<?xml version="1.0" standalone="no"?>
<!DOCTYPE svg PUBLIC "-//W3C//DTD SVG 20010904//EN"
 "http://www.w3.org/TR/2001/REC-SVG-20010904/DTD/svg10.dtd">
<svg version="1.0" xmlns="http://www.w3.org/2000/svg"
 width="512.000000pt" height="464.000000pt" viewBox="0 0 512.000000 464.000000"
 preserveAspectRatio="xMidYMid meet">

<g transform="translate(0.000000,464.000000) scale(0.100000,-0.100000)"
fill="#2a2a2a" stroke="none">
<path d="M2885 4553 c-136 -7 -391 -36 -555 -64 -765 -128 -1496 -447 -1835
-800 -254 -265 -206 -458 130 -525 261 -52 542 -15 966 126 427 142 959 387
959 440 0 39 -72 27 -275 -45 -339 -122 -420 -149 -546 -185 -307 -87 -571
-125 -819 -118 -135 4 -163 8 -215 29 -66 27 -105 72 -105 121 0 136 224 336
581 518 441 224 970 370 1529 421 166 15 619 15 835 -1 878 -63 1226 -303 979
-676 -187 -282 -741 -612 -1386 -825 -149 -49 -417 -123 -423 -117 -11 11 581
662 878 965 93 95 167 178 165 185 -3 7 -16 14 -30 16 -21 3 -54 -27 -210
-190 -238 -249 -483 -510 -737 -785 l-202 -220 -77 -12 c-248 -39 -313 -44
-584 -45 -243 -1 -279 -3 -294 -17 -20 -21 -11 -54 21 -75 15 -9 95 -26 197
-40 173 -24 307 -56 399 -95 27 -12 49 -26 49 -31 0 -56 -1032 -1126 -1390
-1443 -238 -210 -396 -325 -446 -325 -91 0 -37 181 113 383 98 131 456 488
668 667 204 172 245 212 245 239 0 56 -58 33 -228 -93 -176 -131 -327 -261
-520 -451 -324 -317 -498 -556 -547 -750 -20 -79 -19 -108 5 -155 42 -82 98
-89 224 -26 283 140 805 647 1770 1719 93 103 172 187 176 187 12 0 89 -81
120 -125 84 -122 126 -245 219 -631 110 -461 202 -732 342 -1014 43 -85 106
-198 140 -250 86 -130 240 -284 335 -333 151 -78 309 -90 330 -25 5 18 -1 28
-37 58 -145 116 -185 208 -340 775 -136 499 -232 771 -343 969 -88 158 -257
349 -414 469 -74 57 -232 152 -267 161 -33 8 -32 16 8 53 l32 32 225 5 c818
18 1696 280 2089 624 305 267 331 625 66 886 -214 211 -614 357 -1135 415
-231 26 -593 37 -835 24z m-512 -1932 c4 -4 -4 -18 -18 -31 -24 -23 -25 -23
-45 -5 -11 10 -20 27 -20 37 0 16 5 18 38 12 20 -3 40 -10 45 -13z"/>
</g>
</svg>
